<?xml version="1.0" encoding="UTF-8"?>
<svg id="Layer_2" data-name="Layer 2" xmlns="http://www.w3.org/2000/svg" viewBox="0 0 89.4 89.18">
  <g id="Layer_1-2" data-name="Layer 1">
    <path d="m79.7,89.18l-25.07-25.09c-2.42,1.8-5.38,3.23-8.86,4.31-3.48,1.07-7.07,1.61-10.76,1.61-9.77,0-18.04-3.39-24.83-10.18C3.39,53.04,0,44.76,0,35S3.39,16.95,10.18,10.17C16.97,3.39,25.24,0,35.01,0c9.77,0,18.04,3.39,24.82,10.18,6.78,6.78,10.17,15.06,10.17,24.83,0,3.71-.5,7.21-1.5,10.5-1,3.29-2.44,6.21-4.32,8.76l25.22,25.24s-9.7,9.67-9.7,9.67Zm-44.7-33.03c5.96,0,10.97-2.03,15.05-6.1,4.07-4.07,6.11-9.08,6.11-15.03s-2.04-10.97-6.11-15.05c-4.07-4.07-9.09-6.11-15.05-6.11s-10.97,2.04-15.04,6.11c-4.07,4.08-6.1,9.09-6.1,15.05,0,5.96,2.03,10.97,6.1,15.03s9.08,6.1,15.04,6.1Z"/>
  </g>
</svg>