<?xml version="1.0" encoding="UTF-8"?>
<svg id="Layer_2" data-name="Layer 2" xmlns="http://www.w3.org/2000/svg" viewBox="0 0 89.67 94.46">
  <g id="Layer_1-2" data-name="Layer 1">
    <path d="m14.28,94.46c-3.95,0-7.31-1.2-10.1-3.59C1.39,88.48,0,85.58,0,82.19V30.6c0-3.39,1.39-6.29,4.18-8.69,2.79-2.4,6.15-3.59,10.1-3.59h8.27c.06-5.15,2.26-9.49,6.61-13.02,4.35-3.53,9.57-5.3,15.67-5.3s11.33,1.77,15.67,5.3c4.35,3.53,6.55,7.87,6.61,13.02h8.27c3.95,0,7.31,1.2,10.1,3.59,2.79,2.4,4.18,5.29,4.18,8.69v51.59c0,3.39-1.39,6.29-4.18,8.69-2.79,2.4-6.15,3.59-10.1,3.59,0,0-61.11,0-61.11,0Zm0-12.28h61.11V30.6h-8.27v6.88c0,1.69-.7,3.13-2.1,4.34-1.4,1.2-3.08,1.8-5.04,1.8s-3.64-.6-5.04-1.8c-1.4-1.2-2.1-2.65-2.1-4.34v-6.88h-16v6.88c0,1.69-.7,3.13-2.1,4.34-1.4,1.2-3.08,1.8-5.04,1.8s-3.64-.6-5.04-1.8c-1.4-1.2-2.1-2.65-2.1-4.34v-6.88h-8.27s0,51.59,0,51.59Zm22.58-63.86h15.94c-.06-1.74-.87-3.18-2.44-4.33-1.56-1.14-3.41-1.71-5.54-1.71-2.13,0-3.97.57-5.54,1.71-1.56,1.14-2.37,2.59-2.43,4.33Zm-22.58,63.86V30.6s0,51.59,0,51.59Z"/>
  </g>
</svg>