<?xml version="1.0" encoding="UTF-8"?>
<svg id="Layer_2" data-name="Layer 2" xmlns="http://www.w3.org/2000/svg" viewBox="0 0 1131.37 296.08">
  <g id="Layer_1-2" data-name="Layer 1">
    <polygon points="0 0 68.56 0 68.56 121.03 112.27 60.52 185.5 60.52 145.28 115.08 241.36 295.5 160.17 295.5 96.86 173.92 70.05 214.88 70.05 295.5 0 295.5 0 0"/>
    <path d="m308.41,63.93h67.03v72s28.8-.74,51.14,0,33.43-45.92,24.83-72h73.99c7.45,11.27,16.38,97.47-49.16,113.71,3.72,8.44,68.52,117.86,68.52,117.86h-79.45l-49.66-105.94h-41.71v105.94h-68.03l2.48-231.57Z"/>
    <path d="m688.56,63.35l29.13,74.15,32.11-74.15h65.88l-64.22,128.77v103.96h-67.2v-104.62l-63.89-128.11h66.54-68.52"/>
    <path d="m1070.39,141.89c54.62-19.12,46.55-61.7,45.43-78.21h-69.27c8.28,7.63,13.24,55.86-22.34,55.86h-49.16v-55.86h-67.03v232.07h141.52c49.16,0,81.83-28.48,81.83-80.12s-19.77-66.04-60.98-73.74Zm-36.79,103.48c-30.24,0-30.25-.14-55.57,1.01v-72.51s31.91-.61,58.59-.61c37.24,0,40.88,72.11-3.03,72.11Z"/>
  </g>
</svg>