<?xml version="1.0" encoding="UTF-8"?>
<svg id="Layer_2" data-name="Layer 2" xmlns="http://www.w3.org/2000/svg" viewBox="0 0 796.36 208.05">
  <g id="Layer_1-2" data-name="Layer 1">
    <polygon points="0 0 48.18 0 48.18 85.05 78.89 42.52 130.35 42.52 102.08 80.86 169.6 207.64 112.55 207.64 68.06 122.21 49.22 150.99 49.22 207.64 0 207.64 0 0"/>
    <path d="m213.18,44.92h47.1v50.59s20.24-.52,35.94,0c22.01,0,38.41-26.45,17.45-50.59h51.99c1.92,13.43,11.51,68.49-34.54,79.9,2.62,5.93,48.15,82.82,48.15,82.82h-55.83l-34.89-74.44h-29.31v74.44h-47.8l1.74-162.72Z"/>
    <path d="m482.14,44.52l20.47,52.11,22.56-52.11h46.29l-45.13,90.49v73.05h-47.22v-73.51l-44.89-90.02h46.76-48.15"/>
    <path d="m753.52,99.7c38.38-13.43,32.71-43.35,31.93-54.95h-48.67s9.3,39.25-15.7,39.25h-34.54v-39.25h-47.1v163.07h99.44c34.54,0,57.5-20.01,57.5-56.3s-13.89-46.41-42.85-51.81Zm-28.79,70.14c-21.25,0-21.25-.1-39.05.71v-50.95s22.43-.43,41.17-.43c26.17,0,28.73,50.67-2.13,50.67Z"/>
  </g>
</svg>