<?xml version="1.0" encoding="UTF-8"?>
<svg id="Layer_2" data-name="Layer 2" xmlns="http://www.w3.org/2000/svg" viewBox="0 0 102.04 102.04">
  <defs>
    <style>
      .cls-1 {
        fill: #fff;
      }
    </style>
  </defs>
  <g id="Layer_1-2" data-name="Layer 1">
    <rect y="0" width="102.04" height="102.04" rx="50.17" ry="50.17"/>
    <path class="cls-1" d="m69.04,23.48h-36.05c-5.64,0-10.26,4.5-10.26,9.99v35.1c0,5.49,4.62,9.99,10.26,9.99h36.05c5.64,0,10.26-4.5,10.26-9.99v-35.1c0-5.49-4.62-9.99-10.26-9.99Zm-6.66,7.74c0-1.25,1-2.19,2.32-2.19,2.25,0,4.49,0,6.74,0,1.16,0,2.08.74,2.28,1.82.02.12.03.23.03.35,0,2.15,0,4.3,0,6.45,0,1.09-.77,1.95-1.89,2.15-.14.03-.29.03-.44.03-1.13,0-2.25,0-3.37,0s-2.25,0-3.37,0c-1.01.01-2.1-.68-2.28-1.88-.01-.1-.02-.2-.02-.3,0-2.14,0-4.28,0-6.42Zm-11.37,8.61c6.28,0,11.37,4.84,11.37,10.8s-5.08,10.79-11.37,10.79c-6.29,0-11.35-4.82-11.36-10.79-.01-5.86,4.99-10.79,11.37-10.8Zm22.74,6.78v19.19c0,1.42,0,2.83,0,4.25,0,1.05-.73,1.91-1.81,2.12-.21.04-.43.05-.64.05-6.53,0-13.06,0-19.58,0-6.99,0-13.98,0-20.97,0-.3,0-.6-.02-.89-.11-.88-.27-1.5-1-1.57-1.87-.01-.12-.01-.23-.01-.35v-23.58h5.13c-1.16,4.48-.6,8.76,1.76,12.78,1.68,2.87,4.07,5.09,7.1,6.67,2.99,1.57,6.22,2.3,9.63,2.11,5.71-.32,10.29-2.69,13.76-6.99,3.32-4.42,4.29-9.28,2.98-14.56h5.12v.28Z"/>
  </g>
</svg>