<?xml version="1.0" encoding="UTF-8"?>
<svg id="Layer_2" data-name="Layer 2" xmlns="http://www.w3.org/2000/svg" viewBox="0 0 102.04 102.04">
  <defs>
    <style>
      .cls-1 {
        fill: #fff;
      }
    </style>
  </defs>
  <g id="Layer_1-2" data-name="Layer 1">
    <rect y="0" width="102.04" height="102.04" rx="50.17" ry="50.17"/>
    <path class="cls-1" d="m31.62,74.84h-10.12v-32.37h10.12v32.37Zm-5.32-36.42h-.07c-3.66,0-6.03-2.48-6.03-5.61s2.44-5.62,6.18-5.62,6.03,2.42,6.1,5.61c0,3.14-2.37,5.62-6.17,5.62Zm45.78,36.42h-11.47v-16.75c0-4.39-1.8-7.37-5.74-7.37-3.02,0-4.69,2.02-5.48,3.97-.29.69-.25,1.67-.25,2.64v17.52h-11.36s.14-29.67,0-32.37h11.36v5.09c.67-2.23,4.3-5.39,10.1-5.39,7.18,0,12.83,4.66,12.83,14.68v18Z"/>
  </g>
</svg>