<?xml version="1.0" encoding="UTF-8"?>
<svg id="Layer_2" data-name="Layer 2" xmlns="http://www.w3.org/2000/svg" viewBox="0 0 102.04 102.04">
  <defs>
    <style>
      .cls-1 {
        fill: #fff;
      }
    </style>
  </defs>
  <g id="Layer_1-2" data-name="Layer 1">
    <rect x="0" y="0" width="102.04" height="102.04" rx="50.17" ry="50.17"/>
    <path class="cls-1" d="m82.27,39.15c0-4.99-4.1-9.04-9.15-9.04-6.85-.29-13.85-.42-20.99-.42h-2.24c-7.13,0-14.14.13-20.99.42-5.05,0-9.15,4.04-9.15,9.04-.3,3.95-.43,7.91-.42,11.86,0,3.96.13,7.9.42,11.87,0,4.98,4.09,9.03,9.15,9.03,7.21.32,14.59.45,22.11.43,7.52.02,14.89-.11,22.11-.43,5.05,0,9.15-4.04,9.15-9.03.3-3.97.44-7.91.43-11.87.01-3.96-.12-7.91-.43-11.86Zm-21.54,13.77l-17.44,10.09c-1.83,1.06-3.34.2-3.34-1.91l-.03-20.16c0-2.11,1.5-2.97,3.33-1.92l17.46,10.05c1.84,1.05,1.84,2.79,0,3.84Z"/>
  </g>
</svg>